<svg xmlns="http://www.w3.org/2000/svg" width="2048" height="1536" viewBox="0 0 2048 1536">
<!-- fruit slices, one 512x512 cell per level, left to right and top to bottom -->
<g id="level-1" transform="translate(256 256)"><circle r="236.0" fill="#513992" /><circle r="207.7" fill="#a349fc" /><circle r="118.0" fill="#c9a1ff" /><line x1="0.0" y1="-23.6" x2="0.0" y2="-94.4" stroke="#7b4fd0" stroke-width="18.0" stroke-linecap="round"/><line x1="22.4" y1="-7.3" x2="89.8" y2="-29.2" stroke="#7b4fd0" stroke-width="18.0" stroke-linecap="round"/><line x1="13.9" y1="19.1" x2="55.5" y2="76.4" stroke="#7b4fd0" stroke-width="18.0" stroke-linecap="round"/><line x1="-13.9" y1="19.1" x2="-55.5" y2="76.4" stroke="#7b4fd0" stroke-width="18.0" stroke-linecap="round"/><line x1="-22.4" y1="-7.3" x2="-89.8" y2="-29.2" stroke="#7b4fd0" stroke-width="18.0" stroke-linecap="round"/><circle r="23.6" fill="#7b4fd0" /><path d="M-129.8 -82.6 A153.4 153.4 0 0 1 -47.2 -146.3" fill="none" stroke="#fff" stroke-opacity="0.35" stroke-width="16.5" stroke-linecap="round"/></g>
<g id="level-2" transform="translate(768 256)"><circle r="236.0" fill="#912e2e" /><circle r="212.4" fill="#d03030" /><circle r="129.8" fill="#e75a5a" /><circle r="61.4" fill="#8b5a3c" /><circle r="37.8" fill="#b07a55" /><path d="M-129.8 -82.6 A153.4 153.4 0 0 1 -47.2 -146.3" fill="none" stroke="#fff" stroke-opacity="0.35" stroke-width="16.5" stroke-linecap="round"/></g>
<g id="level-3" transform="translate(1280 256)"><circle r="236.0" fill="#bb783d" /><circle r="217.1" fill="#8fd47f" /><circle r="200.6" fill="#6fc65e" /><line x1="94.4" y1="0.0" x2="188.8" y2="0.0" stroke="#a5e296" stroke-width="5.0" stroke-linecap="round"/><line x1="91.2" y1="24.4" x2="182.4" y2="48.9" stroke="#a5e296" stroke-width="5.0" stroke-linecap="round"/><line x1="81.8" y1="47.2" x2="163.5" y2="94.4" stroke="#a5e296" stroke-width="5.0" stroke-linecap="round"/><line x1="66.8" y1="66.8" x2="133.5" y2="133.5" stroke="#a5e296" stroke-width="5.0" stroke-linecap="round"/><line x1="47.2" y1="81.8" x2="94.4" y2="163.5" stroke="#a5e296" stroke-width="5.0" stroke-linecap="round"/><line x1="24.4" y1="91.2" x2="48.9" y2="182.4" stroke="#a5e296" stroke-width="5.0" stroke-linecap="round"/><line x1="0.0" y1="94.4" x2="0.0" y2="188.8" stroke="#a5e296" stroke-width="5.0" stroke-linecap="round"/><line x1="-24.4" y1="91.2" x2="-48.9" y2="182.4" stroke="#a5e296" stroke-width="5.0" stroke-linecap="round"/><line x1="-47.2" y1="81.8" x2="-94.4" y2="163.5" stroke="#a5e296" stroke-width="5.0" stroke-linecap="round"/><line x1="-66.8" y1="66.8" x2="-133.5" y2="133.5" stroke="#a5e296" stroke-width="5.0" stroke-linecap="round"/><line x1="-81.8" y1="47.2" x2="-163.5" y2="94.4" stroke="#a5e296" stroke-width="5.0" stroke-linecap="round"/><line x1="-91.2" y1="24.4" x2="-182.4" y2="48.9" stroke="#a5e296" stroke-width="5.0" stroke-linecap="round"/><line x1="-94.4" y1="0.0" x2="-188.8" y2="0.0" stroke="#a5e296" stroke-width="5.0" stroke-linecap="round"/><line x1="-91.2" y1="-24.4" x2="-182.4" y2="-48.9" stroke="#a5e296" stroke-width="5.0" stroke-linecap="round"/><line x1="-81.8" y1="-47.2" x2="-163.5" y2="-94.4" stroke="#a5e296" stroke-width="5.0" stroke-linecap="round"/><line x1="-66.8" y1="-66.8" x2="-133.5" y2="-133.5" stroke="#a5e296" stroke-width="5.0" stroke-linecap="round"/><line x1="-47.2" y1="-81.8" x2="-94.4" y2="-163.5" stroke="#a5e296" stroke-width="5.0" stroke-linecap="round"/><line x1="-24.4" y1="-91.2" x2="-48.9" y2="-182.4" stroke="#a5e296" stroke-width="5.0" stroke-linecap="round"/><line x1="-0.0" y1="-94.4" x2="-0.0" y2="-188.8" stroke="#a5e296" stroke-width="5.0" stroke-linecap="round"/><line x1="24.4" y1="-91.2" x2="48.9" y2="-182.4" stroke="#a5e296" stroke-width="5.0" stroke-linecap="round"/><line x1="47.2" y1="-81.8" x2="94.4" y2="-163.5" stroke="#a5e296" stroke-width="5.0" stroke-linecap="round"/><line x1="66.8" y1="-66.8" x2="133.5" y2="-133.5" stroke="#a5e296" stroke-width="5.0" stroke-linecap="round"/><line x1="81.8" y1="-47.2" x2="163.5" y2="-94.4" stroke="#a5e296" stroke-width="5.0" stroke-linecap="round"/><line x1="91.2" y1="-24.4" x2="182.4" y2="-48.9" stroke="#a5e296" stroke-width="5.0" stroke-linecap="round"/><circle r="89.7" fill="#dff5d5" /><circle r="70.8" fill="#f2fbe9" /><ellipse cx="124.4" cy="-8.7" rx="9.0" ry="4.0" fill="#1f1a12" transform="rotate(-4.0 124.4 -8.7)"/><ellipse cx="107.6" cy="35.6" rx="9.0" ry="4.0" fill="#1f1a12" transform="rotate(18.3 107.6 35.6)"/><ellipse cx="88.3" cy="79.1" rx="9.0" ry="4.0" fill="#1f1a12" transform="rotate(41.8 88.3 79.1)"/><ellipse cx="63.5" cy="104.2" rx="9.0" ry="4.0" fill="#1f1a12" transform="rotate(58.6 63.5 104.2)"/><ellipse cx="16.4" cy="117.5" rx="9.0" ry="4.0" fill="#1f1a12" transform="rotate(82.0 16.4 117.5)"/><ellipse cx="-23.9" cy="117.8" rx="9.0" ry="4.0" fill="#1f1a12" transform="rotate(101.5 -23.9 117.8)"/><ellipse cx="-61.2" cy="96.0" rx="9.0" ry="4.0" fill="#1f1a12" transform="rotate(122.5 -61.2 96.0)"/><ellipse cx="-91.6" cy="79.6" rx="9.0" ry="4.0" fill="#1f1a12" transform="rotate(139.0 -91.6 79.6)"/><ellipse cx="-105.2" cy="35.0" rx="9.0" ry="4.0" fill="#1f1a12" transform="rotate(161.6 -105.2 35.0)"/><ellipse cx="-117.4" cy="-3.0" rx="9.0" ry="4.0" fill="#1f1a12" transform="rotate(181.5 -117.4 -3.0)"/><ellipse cx="-112.8" cy="-48.8" rx="9.0" ry="4.0" fill="#1f1a12" transform="rotate(203.4 -112.8 -48.8)"/><ellipse cx="-94.4" cy="-71.1" rx="9.0" ry="4.0" fill="#1f1a12" transform="rotate(217.0 -94.4 -71.1)"/><ellipse cx="-54.2" cy="-108.2" rx="9.0" ry="4.0" fill="#1f1a12" transform="rotate(243.4 -54.2 -108.2)"/><ellipse cx="-18.3" cy="-117.8" rx="9.0" ry="4.0" fill="#1f1a12" transform="rotate(261.2 -18.3 -117.8)"/><ellipse cx="28.6" cy="-121.2" rx="9.0" ry="4.0" fill="#1f1a12" transform="rotate(283.3 28.6 -121.2)"/><ellipse cx="55.9" cy="-100.9" rx="9.0" ry="4.0" fill="#1f1a12" transform="rotate(299.0 55.9 -100.9)"/><ellipse cx="91.7" cy="-69.9" rx="9.0" ry="4.0" fill="#1f1a12" transform="rotate(322.7 91.7 -69.9)"/><ellipse cx="105.8" cy="-44.4" rx="9.0" ry="4.0" fill="#1f1a12" transform="rotate(337.2 105.8 -44.4)"/><ellipse cx="139.5" cy="27.8" rx="8.0" ry="3.5" fill="#1f1a12" transform="rotate(11.3 139.5 27.8)"/><ellipse cx="109.4" cy="98.8" rx="8.0" ry="3.5" fill="#1f1a12" transform="rotate(42.1 109.4 98.8)"/><ellipse cx="63.3" cy="140.3" rx="8.0" ry="3.5" fill="#1f1a12" transform="rotate(65.7 63.3 140.3)"/><ellipse cx="13.0" cy="141.2" rx="8.0" ry="3.5" fill="#1f1a12" transform="rotate(84.7 13.0 141.2)"/><ellipse cx="-63.0" cy="132.3" rx="8.0" ry="3.5" fill="#1f1a12" transform="rotate(115.5 -63.0 132.3)"/><ellipse cx="-107.0" cy="90.5" rx="8.0" ry="3.5" fill="#1f1a12" transform="rotate(139.8 -107.0 90.5)"/><ellipse cx="-135.5" cy="23.0" rx="8.0" ry="3.5" fill="#1f1a12" transform="rotate(170.4 -135.5 23.0)"/><ellipse cx="-140.7" cy="-26.5" rx="8.0" ry="3.5" fill="#1f1a12" transform="rotate(190.7 -140.7 -26.5)"/><ellipse cx="-119.7" cy="-98.2" rx="8.0" ry="3.5" fill="#1f1a12" transform="rotate(219.4 -119.7 -98.2)"/><ellipse cx="-62.1" cy="-125.0" rx="8.0" ry="3.5" fill="#1f1a12" transform="rotate(243.6 -62.1 -125.0)"/><ellipse cx="-4.5" cy="-141.9" rx="8.0" ry="3.5" fill="#1f1a12" transform="rotate(268.2 -4.5 -141.9)"/><ellipse cx="57.7" cy="-132.8" rx="8.0" ry="3.5" fill="#1f1a12" transform="rotate(293.5 57.7 -132.8)"/><ellipse cx="110.7" cy="-96.6" rx="8.0" ry="3.5" fill="#1f1a12" transform="rotate(318.9 110.7 -96.6)"/><ellipse cx="137.6" cy="-30.7" rx="8.0" ry="3.5" fill="#1f1a12" transform="rotate(347.4 137.6 -30.7)"/></g>
<g id="level-4" transform="translate(1792 256)"><circle r="236.0" fill="#f1b528" /><circle r="212.4" fill="#fff5c4" /><path d="M9.9 -188.5 A188.8 188.8 0 0 1 113.6 -150.8 L17.0 -22.6 A28.3 28.3 0 0 0 1.5 -28.3 Z" fill="#fed81d"/><path d="M128.8 -138.1 A188.8 188.8 0 0 1 184.0 -42.5 L27.6 -6.4 A28.3 28.3 0 0 0 19.3 -20.7 Z" fill="#fed81d"/><path d="M187.4 -23.0 A188.8 188.8 0 0 1 168.2 85.7 L25.2 12.9 A28.3 28.3 0 0 0 28.1 -3.5 Z" fill="#fed81d"/><path d="M158.3 102.8 A188.8 188.8 0 0 1 73.8 173.8 L11.1 26.1 A28.3 28.3 0 0 0 23.8 15.4 Z" fill="#fed81d"/><path d="M55.2 180.6 A188.8 188.8 0 0 1 -55.2 180.6 L-8.3 27.1 A28.3 28.3 0 0 0 8.3 27.1 Z" fill="#fed81d"/><path d="M-73.8 173.8 A188.8 188.8 0 0 1 -158.3 102.8 L-23.8 15.4 A28.3 28.3 0 0 0 -11.1 26.1 Z" fill="#fed81d"/><path d="M-168.2 85.7 A188.8 188.8 0 0 1 -187.4 -23.0 L-28.1 -3.5 A28.3 28.3 0 0 0 -25.2 12.9 Z" fill="#fed81d"/><path d="M-184.0 -42.5 A188.8 188.8 0 0 1 -128.8 -138.1 L-19.3 -20.7 A28.3 28.3 0 0 0 -27.6 -6.4 Z" fill="#fed81d"/><path d="M-113.6 -150.8 A188.8 188.8 0 0 1 -9.9 -188.5 L-1.5 -28.3 A28.3 28.3 0 0 0 -17.0 -22.6 Z" fill="#fed81d"/><path d="M18.7 -178.4 A179.4 179.4 0 0 1 100.3 -148.7 L21.1 -31.3 A37.8 37.8 0 0 0 3.9 -37.6 Z" fill="#ffe766"/><path d="M129.0 -124.6 A179.4 179.4 0 0 1 172.4 -49.4 L36.3 -10.4 A37.8 37.8 0 0 0 27.2 -26.2 Z" fill="#ffe766"/><path d="M178.9 -12.5 A179.4 179.4 0 0 1 163.9 73.0 L34.5 15.4 A37.8 37.8 0 0 0 37.7 -2.6 Z" fill="#ffe766"/><path d="M145.1 105.4 A179.4 179.4 0 0 1 78.6 161.2 L16.6 33.9 A37.8 37.8 0 0 0 30.5 22.2 Z" fill="#ffe766"/><path d="M43.4 174.0 A179.4 179.4 0 0 1 -43.4 174.0 L-9.1 36.6 A37.8 37.8 0 0 0 9.1 36.6 Z" fill="#ffe766"/><path d="M-78.6 161.2 A179.4 179.4 0 0 1 -145.1 105.4 L-30.5 22.2 A37.8 37.8 0 0 0 -16.6 33.9 Z" fill="#ffe766"/><path d="M-163.9 73.0 A179.4 179.4 0 0 1 -178.9 -12.5 L-37.7 -2.6 A37.8 37.8 0 0 0 -34.5 15.4 Z" fill="#ffe766"/><path d="M-172.4 -49.4 A179.4 179.4 0 0 1 -129.0 -124.6 L-27.2 -26.2 A37.8 37.8 0 0 0 -36.3 -10.4 Z" fill="#ffe766"/><path d="M-100.3 -148.7 A179.4 179.4 0 0 1 -18.7 -178.4 L-3.9 -37.6 A37.8 37.8 0 0 0 -21.1 -31.3 Z" fill="#ffe766"/><circle r="23.6" fill="#fff5c4" /><path d="M-129.8 -82.6 A153.4 153.4 0 0 1 -47.2 -146.3" fill="none" stroke="#fff" stroke-opacity="0.35" stroke-width="16.5" stroke-linecap="round"/></g>
<g id="level-5" transform="translate(256 768)"><circle r="236.0" fill="#fe9e21" /><circle r="212.4" fill="#ffe4b3" /><path d="M9.9 -188.5 A188.8 188.8 0 0 1 102.8 -158.3 L15.4 -23.8 A28.3 28.3 0 0 0 1.5 -28.3 Z" fill="#fcb03f"/><path d="M118.8 -146.7 A188.8 188.8 0 0 1 176.3 -67.7 L26.4 -10.1 A28.3 28.3 0 0 0 17.8 -22.0 Z" fill="#fcb03f"/><path d="M182.4 -48.9 A188.8 188.8 0 0 1 182.4 48.9 L27.4 7.3 A28.3 28.3 0 0 0 27.4 -7.3 Z" fill="#fcb03f"/><path d="M176.3 67.7 A188.8 188.8 0 0 1 118.8 146.7 L17.8 22.0 A28.3 28.3 0 0 0 26.4 10.1 Z" fill="#fcb03f"/><path d="M102.8 158.3 A188.8 188.8 0 0 1 9.9 188.5 L1.5 28.3 A28.3 28.3 0 0 0 15.4 23.8 Z" fill="#fcb03f"/><path d="M-9.9 188.5 A188.8 188.8 0 0 1 -102.8 158.3 L-15.4 23.8 A28.3 28.3 0 0 0 -1.5 28.3 Z" fill="#fcb03f"/><path d="M-118.8 146.7 A188.8 188.8 0 0 1 -176.3 67.7 L-26.4 10.1 A28.3 28.3 0 0 0 -17.8 22.0 Z" fill="#fcb03f"/><path d="M-182.4 48.9 A188.8 188.8 0 0 1 -182.4 -48.9 L-27.4 -7.3 A28.3 28.3 0 0 0 -27.4 7.3 Z" fill="#fcb03f"/><path d="M-176.3 -67.7 A188.8 188.8 0 0 1 -118.8 -146.7 L-17.8 -22.0 A28.3 28.3 0 0 0 -26.4 -10.1 Z" fill="#fcb03f"/><path d="M-102.8 -158.3 A188.8 188.8 0 0 1 -9.9 -188.5 L-1.5 -28.3 A28.3 28.3 0 0 0 -15.4 -23.8 Z" fill="#fcb03f"/><path d="M18.7 -178.4 A179.4 179.4 0 0 1 89.7 -155.3 L18.9 -32.7 A37.8 37.8 0 0 0 3.9 -37.6 Z" fill="#ffc35e"/><path d="M120.0 -133.3 A179.4 179.4 0 0 1 163.9 -73.0 L34.5 -15.4 A37.8 37.8 0 0 0 25.3 -28.1 Z" fill="#ffc35e"/><path d="M175.4 -37.3 A179.4 179.4 0 0 1 175.4 37.3 L36.9 7.9 A37.8 37.8 0 0 0 36.9 -7.9 Z" fill="#ffc35e"/><path d="M163.9 73.0 A179.4 179.4 0 0 1 120.0 133.3 L25.3 28.1 A37.8 37.8 0 0 0 34.5 15.4 Z" fill="#ffc35e"/><path d="M89.7 155.3 A179.4 179.4 0 0 1 18.7 178.4 L3.9 37.6 A37.8 37.8 0 0 0 18.9 32.7 Z" fill="#ffc35e"/><path d="M-18.7 178.4 A179.4 179.4 0 0 1 -89.7 155.3 L-18.9 32.7 A37.8 37.8 0 0 0 -3.9 37.6 Z" fill="#ffc35e"/><path d="M-120.0 133.3 A179.4 179.4 0 0 1 -163.9 73.0 L-34.5 15.4 A37.8 37.8 0 0 0 -25.3 28.1 Z" fill="#ffc35e"/><path d="M-175.4 37.3 A179.4 179.4 0 0 1 -175.4 -37.3 L-36.9 -7.9 A37.8 37.8 0 0 0 -36.9 7.9 Z" fill="#ffc35e"/><path d="M-163.9 -73.0 A179.4 179.4 0 0 1 -120.0 -133.3 L-25.3 -28.1 A37.8 37.8 0 0 0 -34.5 -15.4 Z" fill="#ffc35e"/><path d="M-89.7 -155.3 A179.4 179.4 0 0 1 -18.7 -178.4 L-3.9 -37.6 A37.8 37.8 0 0 0 -18.9 -32.7 Z" fill="#ffc35e"/><circle r="23.6" fill="#ffe4b3" /><path d="M-129.8 -82.6 A153.4 153.4 0 0 1 -47.2 -146.3" fill="none" stroke="#fff" stroke-opacity="0.35" stroke-width="16.5" stroke-linecap="round"/></g>
<g id="level-6" transform="translate(768 768)"><circle r="236.0" fill="#ed6243" /><circle r="217.1" fill="#fff6c6" /><path d="M0.0 -70.8L19.4 -26.7L67.3 -21.9L31.4 10.2L41.6 57.3L0.0 33.0L-41.6 57.3L-31.4 10.2L-67.3 -21.9L-19.4 -26.7Z" fill="#f5e6a8"/><ellipse cx="0.0" cy="-40.1" rx="13.0" ry="6.0" fill="#5b3a1e" transform="rotate(-90.0 0.0 -40.1)"/><ellipse cx="38.2" cy="-12.4" rx="13.0" ry="6.0" fill="#5b3a1e" transform="rotate(-18.0 38.2 -12.4)"/><ellipse cx="23.6" cy="32.5" rx="13.0" ry="6.0" fill="#5b3a1e" transform="rotate(54.0 23.6 32.5)"/><ellipse cx="-23.6" cy="32.5" rx="13.0" ry="6.0" fill="#5b3a1e" transform="rotate(126.0 -23.6 32.5)"/><ellipse cx="-38.2" cy="-12.4" rx="13.0" ry="6.0" fill="#5b3a1e" transform="rotate(198.0 -38.2 -12.4)"/><path d="M-129.8 -82.6 A153.4 153.4 0 0 1 -47.2 -146.3" fill="none" stroke="#fff" stroke-opacity="0.35" stroke-width="16.5" stroke-linecap="round"/></g>
<g id="level-7" transform="translate(1280 768)"><circle r="236.0" fill="#ba5c5c" /><circle r="212.4" fill="#f19595" /><circle r="141.6" fill="#f8b3b3" /><circle r="66.1" fill="#9a5a2a" /><line x1="18.6" y1="3.3" x2="60.4" y2="10.7" stroke="#7a4218" stroke-width="6.0" stroke-linecap="round"/><line x1="12.1" y1="14.5" x2="39.4" y2="47.0" stroke="#7a4218" stroke-width="6.0" stroke-linecap="round"/><line x1="0.0" y1="18.9" x2="0.0" y2="61.4" stroke="#7a4218" stroke-width="6.0" stroke-linecap="round"/><line x1="-12.1" y1="14.5" x2="-39.4" y2="47.0" stroke="#7a4218" stroke-width="6.0" stroke-linecap="round"/><line x1="-18.6" y1="3.3" x2="-60.4" y2="10.7" stroke="#7a4218" stroke-width="6.0" stroke-linecap="round"/><line x1="-16.4" y1="-9.4" x2="-53.1" y2="-30.7" stroke="#7a4218" stroke-width="6.0" stroke-linecap="round"/><line x1="-6.5" y1="-17.7" x2="-21.0" y2="-57.7" stroke="#7a4218" stroke-width="6.0" stroke-linecap="round"/><line x1="6.5" y1="-17.7" x2="21.0" y2="-57.7" stroke="#7a4218" stroke-width="6.0" stroke-linecap="round"/><line x1="16.4" y1="-9.4" x2="53.1" y2="-30.7" stroke="#7a4218" stroke-width="6.0" stroke-linecap="round"/><circle r="14.2" fill="#7a4218" /><path d="M-129.8 -82.6 A153.4 153.4 0 0 1 -47.2 -146.3" fill="none" stroke="#fff" stroke-opacity="0.35" stroke-width="16.5" stroke-linecap="round"/></g>
<g id="level-8" transform="translate(1792 768)"><circle r="236.0" fill="#e85116" /><circle r="212.4" fill="#fb7b26" /><circle r="146.3" fill="#fd9a52" /><circle r="99.1" fill="#3a2415" /><ellipse cx="64.8" cy="2.8" rx="10.0" ry="10.0" fill="#101010" transform="rotate(2.5 64.8 2.8)"/><ellipse cx="53.6" cy="40.5" rx="10.0" ry="10.0" fill="#101010" transform="rotate(37.0 53.6 40.5)"/><ellipse cx="23.4" cy="64.1" rx="10.0" ry="10.0" fill="#101010" transform="rotate(70.0 23.4 64.1)"/><ellipse cx="-29.3" cy="74.3" rx="10.0" ry="10.0" fill="#101010" transform="rotate(111.5 -29.3 74.3)"/><ellipse cx="-59.5" cy="51.1" rx="10.0" ry="10.0" fill="#101010" transform="rotate(139.3 -59.5 51.1)"/><ellipse cx="-68.3" cy="6.1" rx="10.0" ry="10.0" fill="#101010" transform="rotate(174.9 -68.3 6.1)"/><ellipse cx="-51.5" cy="-32.0" rx="10.0" ry="10.0" fill="#101010" transform="rotate(211.8 -51.5 -32.0)"/><ellipse cx="-13.4" cy="-62.7" rx="10.0" ry="10.0" fill="#101010" transform="rotate(258.0 -13.4 -62.7)"/><ellipse cx="20.9" cy="-58.7" rx="10.0" ry="10.0" fill="#101010" transform="rotate(289.6 20.9 -58.7)"/><ellipse cx="58.7" cy="-43.5" rx="10.0" ry="10.0" fill="#101010" transform="rotate(323.5 58.7 -43.5)"/><ellipse cx="39.3" cy="19.5" rx="9.0" ry="9.0" fill="#101010" transform="rotate(26.4 39.3 19.5)"/><ellipse cx="-2.9" cy="43.1" rx="9.0" ry="9.0" fill="#101010" transform="rotate(93.8 -2.9 43.1)"/><ellipse cx="-39.1" cy="19.2" rx="9.0" ry="9.0" fill="#101010" transform="rotate(153.9 -39.1 19.2)"/><ellipse cx="-26.0" cy="-16.7" rx="9.0" ry="9.0" fill="#101010" transform="rotate(212.6 -26.0 -16.7)"/><ellipse cx="-2.6" cy="-30.3" rx="9.0" ry="9.0" fill="#101010" transform="rotate(265.1 -2.6 -30.3)"/><ellipse cx="21.0" cy="-14.3" rx="9.0" ry="9.0" fill="#101010" transform="rotate(325.8 21.0 -14.3)"/><path d="M-129.8 -82.6 A153.4 153.4 0 0 1 -47.2 -146.3" fill="none" stroke="#fff" stroke-opacity="0.35" stroke-width="16.5" stroke-linecap="round"/></g>
<g id="level-9" transform="translate(256 1280)"><circle r="236.0" fill="#95682d" /><circle r="217.1" fill="#5e3f1c" /><circle r="198.2" fill="#fffefc" /><circle r="122.7" fill="#e8f4f5" /><circle r="108.6" fill="#cfe9ee" /><path d="M-129.8 -82.6 A153.4 153.4 0 0 1 -47.2 -146.3" fill="none" stroke="#fff" stroke-opacity="0.35" stroke-width="16.5" stroke-linecap="round"/></g>
<g id="level-10" transform="translate(768 1280)"><circle r="236.0" fill="#609c2e" /><circle r="217.1" fill="#c9ee8e" /><circle r="203.0" fill="#e9f65d" /><circle r="99.1" fill="#f6fbb3" /><ellipse cx="63.3" cy="1.8" rx="12.0" ry="5.0" fill="#d9b25b" transform="rotate(1.6 63.3 1.8)"/><ellipse cx="58.9" cy="38.8" rx="12.0" ry="5.0" fill="#d9b25b" transform="rotate(33.4 58.9 38.8)"/><ellipse cx="29.2" cy="56.4" rx="12.0" ry="5.0" fill="#d9b25b" transform="rotate(62.6 29.2 56.4)"/><ellipse cx="-5.9" cy="63.1" rx="12.0" ry="5.0" fill="#d9b25b" transform="rotate(95.3 -5.9 63.1)"/><ellipse cx="-38.7" cy="72.1" rx="12.0" ry="5.0" fill="#d9b25b" transform="rotate(118.2 -38.7 72.1)"/><ellipse cx="-57.5" cy="40.8" rx="12.0" ry="5.0" fill="#d9b25b" transform="rotate(144.7 -57.5 40.8)"/><ellipse cx="-81.8" cy="10.0" rx="12.0" ry="5.0" fill="#d9b25b" transform="rotate(173.0 -81.8 10.0)"/><ellipse cx="-70.1" cy="-43.7" rx="12.0" ry="5.0" fill="#d9b25b" transform="rotate(211.9 -70.1 -43.7)"/><ellipse cx="-49.0" cy="-65.7" rx="12.0" ry="5.0" fill="#d9b25b" transform="rotate(233.3 -49.0 -65.7)"/><ellipse cx="-6.4" cy="-83.7" rx="12.0" ry="5.0" fill="#d9b25b" transform="rotate(265.6 -6.4 -83.7)"/><ellipse cx="39.0" cy="-65.1" rx="12.0" ry="5.0" fill="#d9b25b" transform="rotate(300.9 39.0 -65.1)"/><ellipse cx="52.7" cy="-34.6" rx="12.0" ry="5.0" fill="#d9b25b" transform="rotate(326.7 52.7 -34.6)"/><ellipse cx="37.7" cy="11.2" rx="11.0" ry="5.0" fill="#d9b25b" transform="rotate(16.5 37.7 11.2)"/><ellipse cx="17.9" cy="40.4" rx="11.0" ry="5.0" fill="#d9b25b" transform="rotate(66.1 17.9 40.4)"/><ellipse cx="-24.8" cy="35.0" rx="11.0" ry="5.0" fill="#d9b25b" transform="rotate(125.3 -24.8 35.0)"/><ellipse cx="-26.4" cy="2.7" rx="11.0" ry="5.0" fill="#d9b25b" transform="rotate(174.3 -26.4 2.7)"/><ellipse cx="-36.1" cy="-31.4" rx="11.0" ry="5.0" fill="#d9b25b" transform="rotate(221.0 -36.1 -31.4)"/><ellipse cx="2.0" cy="-42.2" rx="11.0" ry="5.0" fill="#d9b25b" transform="rotate(272.7 2.0 -42.2)"/><ellipse cx="23.8" cy="-12.0" rx="11.0" ry="5.0" fill="#d9b25b" transform="rotate(333.3 23.8 -12.0)"/><path d="M-129.8 -82.6 A153.4 153.4 0 0 1 -47.2 -146.3" fill="none" stroke="#fff" stroke-opacity="0.35" stroke-width="16.5" stroke-linecap="round"/></g>
<g id="level-11" transform="translate(1280 1280)"><circle r="236.0" fill="#5d853d" /><path d="M234.2 28.8 A236.0 236.0 0 0 1 227.4 63.1 L204.7 56.8 A212.4 212.4 0 0 0 210.8 25.9 Z" fill="#7fb35a"/><path d="M205.4 116.2 A236.0 236.0 0 0 1 186.0 145.3 L167.4 130.8 A212.4 212.4 0 0 0 184.9 104.6 Z" fill="#7fb35a"/><path d="M145.3 186.0 A236.0 236.0 0 0 1 116.2 205.4 L104.6 184.9 A212.4 212.4 0 0 0 130.8 167.4 Z" fill="#7fb35a"/><path d="M63.1 227.4 A236.0 236.0 0 0 1 28.8 234.2 L25.9 210.8 A212.4 212.4 0 0 0 56.8 204.7 Z" fill="#7fb35a"/><path d="M-28.8 234.2 A236.0 236.0 0 0 1 -63.1 227.4 L-56.8 204.7 A212.4 212.4 0 0 0 -25.9 210.8 Z" fill="#7fb35a"/><path d="M-116.2 205.4 A236.0 236.0 0 0 1 -145.3 186.0 L-130.8 167.4 A212.4 212.4 0 0 0 -104.6 184.9 Z" fill="#7fb35a"/><path d="M-186.0 145.3 A236.0 236.0 0 0 1 -205.4 116.2 L-184.9 104.6 A212.4 212.4 0 0 0 -167.4 130.8 Z" fill="#7fb35a"/><path d="M-227.4 63.1 A236.0 236.0 0 0 1 -234.2 28.8 L-210.8 25.9 A212.4 212.4 0 0 0 -204.7 56.8 Z" fill="#7fb35a"/><path d="M-234.2 -28.8 A236.0 236.0 0 0 1 -227.4 -63.1 L-204.7 -56.8 A212.4 212.4 0 0 0 -210.8 -25.9 Z" fill="#7fb35a"/><path d="M-205.4 -116.2 A236.0 236.0 0 0 1 -186.0 -145.3 L-167.4 -130.8 A212.4 212.4 0 0 0 -184.9 -104.6 Z" fill="#7fb35a"/><path d="M-145.3 -186.0 A236.0 236.0 0 0 1 -116.2 -205.4 L-104.6 -184.9 A212.4 212.4 0 0 0 -130.8 -167.4 Z" fill="#7fb35a"/><path d="M-63.1 -227.4 A236.0 236.0 0 0 1 -28.8 -234.2 L-25.9 -210.8 A212.4 212.4 0 0 0 -56.8 -204.7 Z" fill="#7fb35a"/><path d="M28.8 -234.2 A236.0 236.0 0 0 1 63.1 -227.4 L56.8 -204.7 A212.4 212.4 0 0 0 25.9 -210.8 Z" fill="#7fb35a"/><path d="M116.2 -205.4 A236.0 236.0 0 0 1 145.3 -186.0 L130.8 -167.4 A212.4 212.4 0 0 0 104.6 -184.9 Z" fill="#7fb35a"/><path d="M186.0 -145.3 A236.0 236.0 0 0 1 205.4 -116.2 L184.9 -104.6 A212.4 212.4 0 0 0 167.4 -130.8 Z" fill="#7fb35a"/><path d="M227.4 -63.1 A236.0 236.0 0 0 1 234.2 -28.8 L210.8 -25.9 A212.4 212.4 0 0 0 204.7 -56.8 Z" fill="#7fb35a"/><circle r="212.4" fill="#eef5e3" /><circle r="193.5" fill="#ff7068" /><circle r="118.0" fill="#ff8a83" /><ellipse cx="157.0" cy="16.9" rx="11.0" ry="6.0" fill="#1a1a1a" transform="rotate(6.1 157.0 16.9)"/><ellipse cx="115.9" cy="111.5" rx="11.0" ry="6.0" fill="#1a1a1a" transform="rotate(43.9 115.9 111.5)"/><ellipse cx="34.2" cy="139.6" rx="11.0" ry="6.0" fill="#1a1a1a" transform="rotate(76.2 34.2 139.6)"/><ellipse cx="-37.1" cy="149.1" rx="11.0" ry="6.0" fill="#1a1a1a" transform="rotate(104.0 -37.1 149.1)"/><ellipse cx="-124.0" cy="71.3" rx="11.0" ry="6.0" fill="#1a1a1a" transform="rotate(150.1 -124.0 71.3)"/><ellipse cx="-142.9" cy="10.6" rx="11.0" ry="6.0" fill="#1a1a1a" transform="rotate(175.8 -142.9 10.6)"/><ellipse cx="-109.8" cy="-99.5" rx="11.0" ry="6.0" fill="#1a1a1a" transform="rotate(222.2 -109.8 -99.5)"/><ellipse cx="-52.3" cy="-140.8" rx="11.0" ry="6.0" fill="#1a1a1a" transform="rotate(249.6 -52.3 -140.8)"/><ellipse cx="52.3" cy="-131.0" rx="11.0" ry="6.0" fill="#1a1a1a" transform="rotate(291.8 52.3 -131.0)"/><ellipse cx="121.5" cy="-77.1" rx="11.0" ry="6.0" fill="#1a1a1a" transform="rotate(327.6 121.5 -77.1)"/><ellipse cx="83.0" cy="30.5" rx="11.0" ry="6.0" fill="#1a1a1a" transform="rotate(20.2 83.0 30.5)"/><ellipse cx="11.1" cy="109.6" rx="11.0" ry="6.0" fill="#1a1a1a" transform="rotate(84.2 11.1 109.6)"/><ellipse cx="-68.3" cy="81.5" rx="11.0" ry="6.0" fill="#1a1a1a" transform="rotate(130.0 -68.3 81.5)"/><ellipse cx="-84.3" cy="-8.8" rx="11.0" ry="6.0" fill="#1a1a1a" transform="rotate(186.0 -84.3 -8.8)"/><ellipse cx="-49.7" cy="-66.1" rx="11.0" ry="6.0" fill="#1a1a1a" transform="rotate(233.0 -49.7 -66.1)"/><ellipse cx="20.2" cy="-94.1" rx="11.0" ry="6.0" fill="#1a1a1a" transform="rotate(282.1 20.2 -94.1)"/><ellipse cx="100.7" cy="-40.9" rx="11.0" ry="6.0" fill="#1a1a1a" transform="rotate(337.9 100.7 -40.9)"/><ellipse cx="19.4" cy="22.8" rx="10.0" ry="5.5" fill="#1a1a1a" transform="rotate(49.6 19.4 22.8)"/><ellipse cx="-28.6" cy="5.6" rx="10.0" ry="5.5" fill="#1a1a1a" transform="rotate(168.9 -28.6 5.6)"/><ellipse cx="17.1" cy="-39.8" rx="10.0" ry="5.5" fill="#1a1a1a" transform="rotate(293.3 17.1 -39.8)"/><path d="M-129.8 -82.6 A153.4 153.4 0 0 1 -47.2 -146.3" fill="none" stroke="#fff" stroke-opacity="0.35" stroke-width="16.5" stroke-linecap="round"/></g>
</svg>
